<?xml version="1.0" encoding="utf-8"?>
<!-- Generator: Adobe Illustrator 19.1.0, SVG Export Plug-In . SVG Version: 6.00 Build 0)  -->
<svg version="1.1" id="Layer_1" xmlns="http://www.w3.org/2000/svg" xmlns:xlink="http://www.w3.org/1999/xlink" x="0px" y="0px"
	 viewBox="0 0 595.3 841.9" style="enable-background:new 0 0 595.3 841.9;" xml:space="preserve">
<style type="text/css">
	.st0{opacity:0.5;stroke:#FFFFFF;stroke-miterlimit:10;}
	.st1{opacity:0.3;stroke:#FFFFFF;stroke-miterlimit:10;}
	.st2{opacity:0.2;stroke:#FFFFFF;stroke-miterlimit:10;}
	.st3{opacity:0.1;stroke:#FFFFFF;stroke-miterlimit:10;}
	.st4{opacity:0.4;stroke:#FFFFFF;stroke-miterlimit:10;}
	.st5{opacity:0.7;stroke:#FFFFFF;stroke-miterlimit:10;}
</style>
<circle class="st0" cx="378.4" cy="74.1" r="48.9"/>
<circle class="st1" cx="296.7" cy="186.7" r="55.2"/>
<circle class="st2" cx="222.1" cy="79" r="44"/>
<circle class="st0" cx="210.9" cy="309.6" r="44"/>
<circle class="st0" cx="540.7" cy="269.3" r="44"/>
<circle class="st3" cx="66.9" cy="737.5" r="44"/>
<circle class="st3" cx="540.7" cy="712.2" r="44"/>
<circle class="st4" cx="78.4" cy="67.4" r="55.6"/>
<circle class="st0" cx="137.7" cy="195.4" r="59.7"/>
<circle class="st0" cx="351.9" cy="333.4" r="31.3"/>
<circle class="st1" cx="137.7" cy="800.2" r="31.3"/>
<circle class="st1" cx="425.1" cy="225.2" r="58.2"/>
<circle class="st5" cx="508.6" cy="91.7" r="44"/>
<circle class="st2" cx="464.6" cy="377.7" r="56.7"/>
<circle class="st2" cx="378.4" cy="496.7" r="48.9"/>
<circle class="st1" cx="134" cy="470.2" r="55.2"/>
<circle class="st1" cx="266.1" cy="426.2" r="44"/>
<circle class="st3" cx="254.9" cy="794.3" r="44"/>
<circle class="st3" cx="210.9" cy="578.4" r="44"/>
<circle class="st0" cx="464.6" cy="622.4" r="44"/>
<circle class="st2" cx="78" cy="339" r="55.6"/>
<circle class="st2" cx="82.5" cy="605.3" r="59.7"/>
<circle class="st3" cx="320.6" cy="730.8" r="31.3"/>
<circle class="st1" cx="329.5" cy="622.4" r="58.2"/>
<circle class="st0" cx="508.6" cy="514.2" r="44"/>
<circle class="st1" cx="189.2" cy="699.5" r="56.7"/>
<circle class="st2" cx="427.3" cy="737.5" r="56.7"/>
</svg>
