<?xml version="1.0" encoding="utf-8"?>
<!-- Generator: Adobe Illustrator 19.1.0, SVG Export Plug-In . SVG Version: 6.00 Build 0)  -->
<svg version="1.1" id="Layer_1" xmlns="http://www.w3.org/2000/svg" xmlns:xlink="http://www.w3.org/1999/xlink" x="0px" y="0px"
	 viewBox="0 0 111.2 126.8" style="enable-background:new 0 0 111.2 126.8;" xml:space="preserve">
<style type="text/css">
	.st0{fill-rule:evenodd;clip-rule:evenodd;fill:#C27D2A;}
	.st1{fill-rule:evenodd;clip-rule:evenodd;fill:#491A0D;}
	.st2{fill-rule:evenodd;clip-rule:evenodd;fill:#EAA852;}
	.st3{clip-path:url(#SVGID_2_);fill-rule:evenodd;clip-rule:evenodd;fill:#C27D2A;}
	.st4{fill-rule:evenodd;clip-rule:evenodd;fill:#BD5D28;}
	.st5{fill:#491A0D;}
	.st6{clip-path:url(#SVGID_4_);fill-rule:evenodd;clip-rule:evenodd;fill:url(#SVGID_5_);}
	.st7{clip-path:url(#SVGID_4_);}
	.st8{fill-rule:evenodd;clip-rule:evenodd;fill:#FFFFFF;}
	.st9{clip-path:url(#SVGID_9_);fill-rule:evenodd;clip-rule:evenodd;fill:#FFFFFF;}
	
		.st10{fill-rule:evenodd;clip-rule:evenodd;fill:none;stroke:#491A0D;stroke-width:0.6051;stroke-linecap:round;stroke-miterlimit:3.8637;}
</style>
<g>
	<g>
		<path class="st0" d="M45.6,108.7c-1.5,7.5-8.7,12.3-16.2,10.9c-7.5-1.5-12.3-8.7-10.9-16.2c0-0.1,0-0.2,0.1-0.4
			c0.8-4.2,6.6-3.3,5.5,1.3l0,0.1c-0.9,4.4,2,8.7,6.4,9.5c4.4,0.9,8.7-2,9.5-6.4C40.9,103.3,47.1,101.3,45.6,108.7z"/>
		<path class="st1" d="M20.7,107.8c2.4,0.5,4.7-1.1,5.1-3.5c0.7-3.5-3.4-4.5-2.7-8.1c0,0-5.3,2.9-6,6.5
			C16.8,105,18.3,107.3,20.7,107.8z"/>
	</g>
	<g>
		<g>
			<rect x="37.9" y="101.1" class="st0" width="12.6" height="19.4"/>
			<path class="st0" d="M34.4,123.6c0-4.5,4.2-8,9.7-8c5.4,0,9.8,3.5,9.8,8H34.4z"/>
			<rect x="60.2" y="101.1" class="st2" width="12.6" height="19.4"/>
			<path class="st2" d="M56.7,123.6c0-4.5,4.2-8,9.7-8c5.4,0,9.8,3.5,9.8,8H56.7z"/>
			<g>
				<defs>
					<path id="SVGID_1_" d="M30,92c0-12.5,5.9-26.3,25.2-26.8c20.8-0.5,25.9,14.7,25.9,27.2S68.5,115.2,56,115.2
						C43.4,115.2,30,104.6,30,92z"/>
				</defs>
				<use xlink:href="#SVGID_1_"  style="overflow:visible;fill-rule:evenodd;clip-rule:evenodd;fill:#EAA852;"/>
				<clipPath id="SVGID_2_">
					<use xlink:href="#SVGID_1_"  style="overflow:visible;"/>
				</clipPath>
				<path class="st3" d="M55.6,132.9V82.8C18,71.5,24.5,123.6,24.7,129.1c0.3,10.4,10.9,18.4,18.4,17.3
					C50.9,145.1,55.6,132.9,55.6,132.9z"/>
			</g>
		</g>
		<path class="st4" d="M6,52.4c0-27.1,21.9-49,49-49c27.1,0,49,21.9,49,49c0,27.1-28.2,48.5-48.4,57.3C34.3,100.5,6,79.4,6,52.4z"/>
		<g>
			<circle class="st2" cx="77.1" cy="34.7" r="13.6"/>
			<circle class="st5" cx="77.1" cy="34.7" r="6.8"/>
			<circle class="st2" cx="34" cy="34.7" r="13.6"/>
			<circle class="st5" cx="34" cy="34.7" r="6.8"/>
			<g>
				<defs>
					<path id="SVGID_3_" d="M20.1,63.8c5.9-1.3,6.4-24.9,6.8-22.5c5.7-11.9,18.6-14.9,28.7-14.9c10.9,0,24.9,5.3,29.5,14.9
						c-0.3-4.3,1.9,26.8,6,22.5c0,15.1-15.9,27.3-35.5,27.3C35.9,91.1,20.1,78.9,20.1,63.8z"/>
				</defs>
				<use xlink:href="#SVGID_3_"  style="overflow:visible;fill:#EAA852;"/>
				<clipPath id="SVGID_4_">
					<use xlink:href="#SVGID_3_"  style="overflow:visible;"/>
				</clipPath>
				
					<linearGradient id="SVGID_5_" gradientUnits="userSpaceOnUse" x1="1715.6738" y1="-1556.7921" x2="1736.641" y2="-1488.2114" gradientTransform="matrix(1 0 0 1 -1688.3311 1584)">
					<stop  offset="0" style="stop-color:#C37E2A"/>
					<stop  offset="0.7773" style="stop-color:#EAA852"/>
					<stop  offset="1" style="stop-color:#EAA852"/>
				</linearGradient>
				<path class="st6" d="M55,93.8V20.3C21.2,20,13.2,70.7,13.4,76.8c0.4,11.9,14.2,21.8,22.7,20.5C45,95.9,55,93.8,55,93.8z"/>
				<g class="st7">
					<defs>
						<ellipse id="SVGID_6_" cx="55.6" cy="88.6" rx="32.8" ry="21.7"/>
					</defs>
					<use xlink:href="#SVGID_6_"  style="overflow:visible;fill-rule:evenodd;clip-rule:evenodd;fill:#FDD6BF;"/>
					<clipPath id="SVGID_7_">
						<use xlink:href="#SVGID_6_"  style="overflow:visible;"/>
					</clipPath>
				</g>
			</g>
			<ellipse class="st1" cx="35.1" cy="54.5" rx="5" ry="5.1"/>
			<circle class="st8" cx="36.4" cy="53.4" r="1.4"/>
			<ellipse class="st1" cx="73.6" cy="54.5" rx="5" ry="5.1"/>
			<circle class="st8" cx="74.8" cy="53.4" r="1.4"/>
			<g>
				<defs>
					<path id="SVGID_8_" d="M46.9,66c0-5.9,16.9-6.6,16.9,0c0,2.9-8.4,5.3-8.4,5.3S46.9,68.9,46.9,66z"/>
				</defs>
				<use xlink:href="#SVGID_8_"  style="overflow:visible;fill-rule:evenodd;clip-rule:evenodd;fill:#491A0D;"/>
				<clipPath id="SVGID_9_">
					<use xlink:href="#SVGID_8_"  style="overflow:visible;"/>
				</clipPath>
				
					<ellipse transform="matrix(-0.9848 -0.1738 0.1738 -0.9848 105.9064 137.3115)" class="st9" cx="59" cy="64" rx="2.3" ry="0.9"/>
			</g>
		</g>
		<path class="st4" d="M45.7,27.3c-3,16.1,12.4,9.2,12.1,21.1c10.7-10.1,11.4-15.2,6.4-23.7C60.1,23.1,45.7,27.3,45.7,27.3z"/>
		<path class="st10" d="M48.2,70.7C40.8,64.5,20.8,60,3.7,68.8"/>
		<path class="st10" d="M46.4,72.6c-9.9-3.1-24.4-5-36.7,1.7"/>
		<path class="st10" d="M46.3,75.6c-10.5-3.5-23.9,0.5-31.9,7.3"/>
		<path class="st10" d="M63,70.7c7.4-6.2,27.4-10.6,44.5-1.9"/>
		<path class="st10" d="M64.9,72.6c9.9-3.1,24.4-5,36.7,1.7"/>
		<path class="st10" d="M65,75.6c10.5-3.5,23.9,0.5,31.9,7.3"/>
	</g>
</g>
</svg>
