<?xml version="1.0" encoding="utf-8"?>
<!-- Generator: Adobe Illustrator 19.1.0, SVG Export Plug-In . SVG Version: 6.00 Build 0)  -->
<svg version="1.1" id="Layer_1" xmlns="http://www.w3.org/2000/svg" xmlns:xlink="http://www.w3.org/1999/xlink" x="0px" y="0px"
	 viewBox="0 0 110.5 134.8" style="enable-background:new 0 0 110.5 134.8;" xml:space="preserve">
<style type="text/css">
	.st0{fill-rule:evenodd;clip-rule:evenodd;fill:#88471F;}
	.st1{fill-rule:evenodd;clip-rule:evenodd;fill:#FCCA98;}
	.st2{fill-rule:evenodd;clip-rule:evenodd;fill:#58240E;}
	.st3{clip-path:url(#SVGID_2_);fill-rule:evenodd;clip-rule:evenodd;fill:#58240E;}
	.st4{clip-path:url(#SVGID_2_);fill:url(#SVGID_3_);}
	.st5{fill:#F37772;}
	.st6{clip-path:url(#SVGID_5_);fill-rule:evenodd;clip-rule:evenodd;fill:url(#SVGID_6_);}
	.st7{clip-path:url(#SVGID_8_);fill-rule:evenodd;clip-rule:evenodd;fill:#58240E;}
	.st8{clip-path:url(#SVGID_8_);}
	.st9{fill-rule:evenodd;clip-rule:evenodd;fill:#CB8B62;}
	.st10{clip-path:url(#SVGID_10_);fill:#88471F;}
	.st11{fill-rule:evenodd;clip-rule:evenodd;fill:#FFFFFF;}
	.st12{clip-path:url(#SVGID_12_);fill:#88471F;}
	.st13{clip-path:url(#SVGID_12_);fill-rule:evenodd;clip-rule:evenodd;fill:#FFFFFF;}
	.st14{clip-path:url(#SVGID_14_);fill-rule:evenodd;clip-rule:evenodd;fill:url(#SVGID_15_);}
</style>
<g>
	<rect x="60" y="93.3" class="st0" width="14.3" height="35.7"/>
	<path class="st1" d="M56.1,132.6c0-5.1,4.8-9.1,11-9.1c6.2,0,11.2,4,11.2,9.1H56.1z"/>
	<rect x="37.3" y="93.3" class="st2" width="14.3" height="35.7"/>
	<path class="st1" d="M33.3,132.6c0-5.1,4.8-9.1,11-9.1c6.2,0,11.2,4,11.2,9.1H33.3z"/>
	<g>
		<defs>
			<path id="SVGID_1_" d="M30.3,98.6c0-12.5,5.9-26.3,25.2-26.8c20.8-0.5,25.9,14.7,25.9,27.2s-12.6,22.7-25.1,22.7
				C43.7,121.8,30.3,111.2,30.3,98.6z"/>
		</defs>
		<use xlink:href="#SVGID_1_"  style="overflow:visible;fill-rule:evenodd;clip-rule:evenodd;fill:#88471F;"/>
		<clipPath id="SVGID_2_">
			<use xlink:href="#SVGID_1_"  style="overflow:visible;"/>
		</clipPath>
		<path class="st3" d="M55.9,129.1V79C18.4,67.7,24.8,119.8,25,125.2c0.3,10.4,10.9,18.4,18.4,17.3
			C51.2,141.3,55.9,129.1,55.9,129.1z"/>
		
			<linearGradient id="SVGID_3_" gradientUnits="userSpaceOnUse" x1="1757.683" y1="-1554.1711" x2="1730.3796" y2="-1486.593" gradientTransform="matrix(1 0 0 1 -1688.3311 1584)">
			<stop  offset="0" style="stop-color:#B77451"/>
			<stop  offset="0.7969" style="stop-color:#58240E"/>
			<stop  offset="1" style="stop-color:#58240E"/>
		</linearGradient>
		<path class="st4" d="M22.5,73.9c0-5.2,4.8-18.1,4.8-21.2c0-14.8,12-26.9,26.9-26.9c14.8,0,26.9,12,26.9,26.9
			c0,3.5,3.8,16.3,3.8,21.2c0,13.3-13.9,25.4-31.1,25.4S22.5,87.2,22.5,73.9z"/>
	</g>
	<circle class="st1" cx="95.1" cy="51.3" r="13.6"/>
	<circle class="st5" cx="95.1" cy="51.3" r="6.8"/>
	<circle class="st1" cx="15.5" cy="51.3" r="13.6"/>
	<circle class="st5" cx="15.5" cy="51.3" r="6.8"/>
	<g>
		<defs>
			<circle id="SVGID_4_" cx="55.3" cy="49.1" r="40.2"/>
		</defs>
		<use xlink:href="#SVGID_4_"  style="overflow:visible;fill-rule:evenodd;clip-rule:evenodd;fill:#88471F;"/>
		<clipPath id="SVGID_5_">
			<use xlink:href="#SVGID_4_"  style="overflow:visible;"/>
		</clipPath>
		
			<linearGradient id="SVGID_6_" gradientUnits="userSpaceOnUse" x1="1716.543" y1="-1573.9233" x2="1739.7936" y2="-1497.8738" gradientTransform="matrix(1 0 0 1 -1688.3311 1584)">
			<stop  offset="0" style="stop-color:#58240E"/>
			<stop  offset="0.707" style="stop-color:#88471F"/>
			<stop  offset="1" style="stop-color:#88471F"/>
		</linearGradient>
		<path class="st6" d="M56.1,77L55.3,3.9c-48.5,1.7-40,51.2-39.8,57.4c0.4,11.9,17.2,29.1,25.8,27.8C50.2,87.7,56.1,77,56.1,77z"/>
	</g>
	<g>
		<defs>
			<path id="SVGID_7_" d="M55.4,39.6C58.4,33,65,28.4,72.7,28.4c10.4,0,18.9,8.5,18.9,18.9c0,10.2-8.1,18.5-18.2,18.9
				c1.3,2.5,2,5.4,2,8.5c0,10.4-8.5,18.9-18.9,18.9c-10.4,0-18.9-8.5-18.9-18.9c0-3.1,0.7-6,2-8.5c-0.5,0-1,0.1-1.5,0.1
				c-10.4,0-18.9-8.5-18.9-18.9c0-10.4,8.5-18.9,18.9-18.9C45.9,28.4,52.5,33,55.4,39.6z"/>
		</defs>
		<use xlink:href="#SVGID_7_"  style="overflow:visible;fill:#FCCA98;"/>
		<clipPath id="SVGID_8_">
			<use xlink:href="#SVGID_7_"  style="overflow:visible;"/>
		</clipPath>
		
			<ellipse transform="matrix(-0.9456 0.3255 -0.3255 -0.9456 139.6481 106.7199)" class="st7" cx="60.9" cy="65" rx="2.8" ry="2.9"/>
		<g class="st8">
			<ellipse class="st9" cx="37.3" cy="48.8" rx="11.8" ry="11.9"/>
			<ellipse class="st9" cx="73.3" cy="48.8" rx="11.8" ry="11.9"/>
			<g>
				<defs>
					<circle id="SVGID_9_" cx="37" cy="49.2" r="6.9"/>
				</defs>
				<use xlink:href="#SVGID_9_"  style="overflow:visible;fill-rule:evenodd;clip-rule:evenodd;fill:#58240E;"/>
				<clipPath id="SVGID_10_">
					<use xlink:href="#SVGID_9_"  style="overflow:visible;"/>
				</clipPath>
				<path class="st10" d="M42.4,49.4c0-2.1-1.2-3.9-3-4.7c0.8,0.8,1.3,1.9,1.3,3.1c0,2.4-1.9,4.3-4.3,4.3c-2,0-3.7-1.4-4.2-3.3
					c0,0.2,0,0.4,0,0.6c0,2.9,2.3,5.2,5.2,5.2C40,54.5,42.4,52.2,42.4,49.4z"/>
			</g>
			<circle class="st11" cx="34.9" cy="46.3" r="1.8"/>
			<g>
				<defs>
					<circle id="SVGID_11_" cx="73.3" cy="49.2" r="6.9"/>
				</defs>
				<use xlink:href="#SVGID_11_"  style="overflow:visible;fill-rule:evenodd;clip-rule:evenodd;fill:#58240E;"/>
				<clipPath id="SVGID_12_">
					<use xlink:href="#SVGID_11_"  style="overflow:visible;"/>
				</clipPath>
				<path class="st12" d="M78.7,49.1c0-2.1-1.2-3.9-3-4.7c0.8,0.8,1.3,1.9,1.3,3.1c0,2.4-1.9,4.3-4.3,4.3c-2,0-3.7-1.4-4.2-3.3
					c0,0.2,0,0.4,0,0.6c0,2.9,2.3,5.2,5.2,5.2C76.4,54.2,78.7,51.9,78.7,49.1z"/>
				<circle class="st13" cx="71.1" cy="46.3" r="1.8"/>
			</g>
		</g>
	</g>
	<g>
		<defs>
			<path id="SVGID_13_" d="M46.2,11.2c1.3-3.4,3.2-6.9,9.5-8.8c-0.8,2.1-0.8,4.1-0.6,6.2c2.3-2.4,4.6-3.8,6.9-4.4
				c-0.8,1.5-0.9,3.3-0.4,5.5C57.3,10.1,46.2,11.2,46.2,11.2z"/>
		</defs>
		<use xlink:href="#SVGID_13_"  style="overflow:visible;fill-rule:evenodd;clip-rule:evenodd;fill:#88471F;"/>
		<clipPath id="SVGID_14_">
			<use xlink:href="#SVGID_13_"  style="overflow:visible;"/>
		</clipPath>
		
			<linearGradient id="SVGID_15_" gradientUnits="userSpaceOnUse" x1="1716.3046" y1="-1575.6162" x2="1740.049" y2="-1497.9518" gradientTransform="matrix(1 0 0 1 -1688.3311 1584)">
			<stop  offset="0" style="stop-color:#57250E"/>
			<stop  offset="0.6953" style="stop-color:#88471F"/>
			<stop  offset="1" style="stop-color:#88471F"/>
		</linearGradient>
		<path class="st14" d="M56.1,77L55.3,2.1c-48.5,1.7-40,53.1-39.8,59.2c0.4,11.9,17.2,29.1,25.8,27.8C50.2,87.7,56.1,77,56.1,77z"/>
	</g>
	<ellipse transform="matrix(-0.9456 0.3255 -0.3255 -0.9456 120.8101 109.8713)" class="st2" cx="51.2" cy="65" rx="2.8" ry="2.9"/>
	<path class="st2" d="M43.5,111.1c-0.1-9.1-7.6-16.5-16.7-16.5c-9.2,0-16.7,7.5-16.7,16.7s7.5,16.7,16.7,16.7c0.1,0,0.3,0,0.4,0
		c5.2,0,5.5-7-0.3-6.9l-0.2,0c-5.4,0-9.8-4.4-9.8-9.8c0-5.4,4.4-9.8,9.8-9.8c5.4,0,9.7,4.3,9.8,9.6H43.5z"/>
	<path class="st1" d="M68.4,111.6c-3.3,0.1-6-2.9-6.2-6.9c-0.1-4,2.3-7.4,5.7-7.5L68.4,111.6z"/>
	<path class="st1" d="M43.3,111.6c3.3,0.1,6-2.9,6.2-6.9c0.1-4-2.3-7.4-5.7-7.5L43.3,111.6z"/>
</g>
</svg>
