<?xml version="1.0" encoding="utf-8"?>
<!-- Generator: Adobe Illustrator 19.1.0, SVG Export Plug-In . SVG Version: 6.00 Build 0)  -->
<svg version="1.1" id="Layer_1" xmlns="http://www.w3.org/2000/svg" xmlns:xlink="http://www.w3.org/1999/xlink" x="0px" y="0px"
	 viewBox="0 0 85 131.5" style="enable-background:new 0 0 85 131.5;" xml:space="preserve">
<style type="text/css">
	.st0{clip-path:url(#SVGID_2_);fill-rule:evenodd;clip-rule:evenodd;fill:#F37772;}
	.st1{clip-path:url(#SVGID_4_);fill-rule:evenodd;clip-rule:evenodd;fill:#F37772;}
	.st2{fill-rule:evenodd;clip-rule:evenodd;fill:#A96C3D;}
	.st3{fill-rule:evenodd;clip-rule:evenodd;fill:#D79D74;}
	.st4{clip-path:url(#SVGID_6_);fill-rule:evenodd;clip-rule:evenodd;fill:#A96C3D;}
	.st5{clip-path:url(#SVGID_6_);fill:url(#SVGID_7_);}
	.st6{clip-path:url(#SVGID_9_);fill-rule:evenodd;clip-rule:evenodd;fill:url(#SVGID_10_);}
	.st7{clip-path:url(#SVGID_9_);}
	.st8{clip-path:url(#SVGID_9_);fill-rule:evenodd;clip-rule:evenodd;fill:#CB8B62;}
	.st9{fill-rule:evenodd;clip-rule:evenodd;fill:#491A0D;}
	.st10{fill-rule:evenodd;clip-rule:evenodd;fill:#FFFFFF;}
	.st11{fill-rule:evenodd;clip-rule:evenodd;fill:#CB8B62;}
	.st12{clip-path:url(#SVGID_14_);fill-rule:evenodd;clip-rule:evenodd;fill:url(#SVGID_15_);}
	.st13{clip-path:url(#SVGID_14_);fill-rule:evenodd;clip-rule:evenodd;fill:url(#SVGID_16_);}
	.st14{clip-path:url(#SVGID_18_);fill-rule:evenodd;clip-rule:evenodd;fill:#FFFFFF;}
</style>
<g>
	<g>
		<defs>
			<path id="SVGID_1_" d="M12.7,34.1C10.5,16.9,13.6,2.8,23.3,2.8c10,0,13.5,14.2,11.9,31.4c-1.6,18.2-3.7,30.2-9.5,30.2
				C19.9,64.3,15,51.3,12.7,34.1z"/>
		</defs>
		<use xlink:href="#SVGID_1_"  style="overflow:visible;fill-rule:evenodd;clip-rule:evenodd;fill:#A76B3C;"/>
		<clipPath id="SVGID_2_">
			<use xlink:href="#SVGID_1_"  style="overflow:visible;"/>
		</clipPath>
		<path class="st0" d="M16.7,31.3c-1.4-11,0.6-20,6.8-20c6.4,0,8.6,9.1,7.6,20.1c-1,11.7-2.3,19.3-6.1,19.3
			C21.3,50.7,18.1,42.4,16.7,31.3z"/>
	</g>
	<g>
		<defs>
			<path id="SVGID_3_" d="M71.4,34.1c2.2-17.1-0.9-31.3-10.5-31.3c-10,0-13.5,14.2-11.9,31.4c1.6,18.2,3.7,30.2,9.5,30.2
				C64.2,64.3,69.1,51.3,71.4,34.1z"/>
		</defs>
		<use xlink:href="#SVGID_3_"  style="overflow:visible;fill-rule:evenodd;clip-rule:evenodd;fill:#A76B3C;"/>
		<clipPath id="SVGID_4_">
			<use xlink:href="#SVGID_3_"  style="overflow:visible;"/>
		</clipPath>
		<path class="st1" d="M67.4,31.3c1.4-11-0.6-20-6.8-20c-6.4,0-8.6,9.1-7.6,20.1c1,11.7,2.3,19.3,6.1,19.3
			C62.8,50.7,66,42.4,67.4,31.3z"/>
	</g>
	<g>
		<rect x="25.2" y="106.7" class="st2" width="12.6" height="19.4"/>
		<path class="st2" d="M21.7,129.3c0-4.5,4.2-8,9.7-8c5.4,0,9.8,3.5,9.8,8H21.7z"/>
		<rect x="47.4" y="106.7" class="st3" width="12.6" height="19.4"/>
		<path class="st3" d="M43.9,129.3c0-4.5,4.2-8,9.7-8c5.4,0,9.8,3.5,9.8,8H43.9z"/>
		<g>
			<defs>
				<path id="SVGID_5_" d="M17.2,97.7c0-12.5,5.9-26.3,25.2-26.8c20.8-0.5,25.9,14.7,25.9,27.2c0,12.5-12.6,22.7-25.1,22.7
					C30.6,120.9,17.2,110.2,17.2,97.7z"/>
			</defs>
			<use xlink:href="#SVGID_5_"  style="overflow:visible;fill-rule:evenodd;clip-rule:evenodd;fill:#D79D74;"/>
			<clipPath id="SVGID_6_">
				<use xlink:href="#SVGID_5_"  style="overflow:visible;"/>
			</clipPath>
			<path class="st4" d="M42.8,138.6V88.5c-37.6-11.3-31.1,40.9-30.9,46.3c0.3,10.4,10.9,18.4,18.4,17.3
				C38.1,150.8,42.8,138.6,42.8,138.6z"/>
			
				<linearGradient id="SVGID_7_" gradientUnits="userSpaceOnUse" x1="1744.58" y1="-1543.7897" x2="1717.2766" y2="-1476.2115" gradientTransform="matrix(1 0 0 1 -1688.3311 1584)">
				<stop  offset="0" style="stop-color:#B77451"/>
				<stop  offset="0.7969" style="stop-color:#A96C3D"/>
				<stop  offset="1" style="stop-color:#A96C3D"/>
			</linearGradient>
			<path class="st5" d="M9.4,84.3c0-5.2,4.8-18.1,4.8-21.2c0-14.8,12-26.9,26.9-26.9c14.9,0,26.9,12,26.9,26.9
				c0,3.5,3.8,16.3,3.8,21.2c0,13.3-13.9,25.4-31.1,25.4C23.5,109.7,9.4,97.6,9.4,84.3z"/>
		</g>
	</g>
	<g>
		<defs>
			<path id="SVGID_8_" d="M7.3,78.6c0-5.9,4.6-17.7,6.8-22.5c5.7-11.9,18.6-14.9,28.7-14.9c10.9,0,24.9,5.3,29.5,14.9
				c3,6.2,6,16.9,6,22.5c0,15.1-15.9,27.3-35.5,27.3C23.2,105.9,7.3,93.7,7.3,78.6z"/>
		</defs>
		<use xlink:href="#SVGID_8_"  style="overflow:visible;fill:#D79D74;"/>
		<clipPath id="SVGID_9_">
			<use xlink:href="#SVGID_8_"  style="overflow:visible;"/>
		</clipPath>
		
			<linearGradient id="SVGID_10_" gradientUnits="userSpaceOnUse" x1="1702.9059" y1="-1542.0425" x2="1723.873" y2="-1473.4619" gradientTransform="matrix(1 0 0 1 -1688.3311 1584)">
			<stop  offset="0" style="stop-color:#9F6332"/>
			<stop  offset="0.7773" style="stop-color:#D79D74"/>
			<stop  offset="1" style="stop-color:#D79D74"/>
		</linearGradient>
		<path class="st6" d="M42.2,108.5V35C8.5,34.7,0.4,85.4,0.6,91.6c0.4,11.9,14.2,21.8,22.7,20.5C32.2,110.7,42.2,108.5,42.2,108.5z"
			/>
		<g class="st7">
			<defs>
				<ellipse id="SVGID_11_" cx="42.9" cy="103.4" rx="32.8" ry="21.7"/>
			</defs>
			<use xlink:href="#SVGID_11_"  style="overflow:visible;fill-rule:evenodd;clip-rule:evenodd;fill:#FDD6BF;"/>
			<clipPath id="SVGID_12_">
				<use xlink:href="#SVGID_11_"  style="overflow:visible;"/>
			</clipPath>
		</g>
		<circle class="st8" cx="22.2" cy="69.6" r="9.1"/>
	</g>
	<ellipse class="st9" cx="22.4" cy="69.3" rx="5" ry="5.1"/>
	<circle class="st10" cx="23.6" cy="68.2" r="1.4"/>
	<circle class="st11" cx="60.9" cy="69.6" r="9.1"/>
	<ellipse class="st9" cx="60.8" cy="69.3" rx="5" ry="5.1"/>
	<circle class="st10" cx="62" cy="68.2" r="1.4"/>
	<g>
		<defs>
			<path id="SVGID_13_" d="M7.3,77.8c-2,3-6.7,7.4-4.5,13.6c1.2-1.9,2.9-3.1,4.6-4.1C6.9,90.6,6,92.8,6.8,95
				c0.7-1.5,3.2-2.8,5.4-2.5C10,88.8,7.3,77.8,7.3,77.8z"/>
		</defs>
		<use xlink:href="#SVGID_13_"  style="overflow:visible;fill-rule:evenodd;clip-rule:evenodd;fill:#FED5AF;"/>
		<clipPath id="SVGID_14_">
			<use xlink:href="#SVGID_13_"  style="overflow:visible;"/>
		</clipPath>
		
			<linearGradient id="SVGID_15_" gradientUnits="userSpaceOnUse" x1="1700.6677" y1="-1544.6493" x2="1721.5786" y2="-1476.2528" gradientTransform="matrix(1 0 0 1 -1688.3311 1584)">
			<stop  offset="0" style="stop-color:#CB8B62"/>
			<stop  offset="0.7656" style="stop-color:#C5895D"/>
			<stop  offset="1" style="stop-color:#C5895D"/>
		</linearGradient>
		<path class="st12" d="M40.1,105.7l-0.8-73.1C6.3,32.1-0.7,83.8-0.5,90c0.4,11.9,12.4,21,20.9,19.7
			C29.3,108.2,40.1,105.7,40.1,105.7z"/>
		
			<linearGradient id="SVGID_16_" gradientUnits="userSpaceOnUse" x1="1702.9059" y1="-1542.0425" x2="1723.873" y2="-1473.4619" gradientTransform="matrix(1 0 0 1 -1688.3311 1584)">
			<stop  offset="0" style="stop-color:#9F6332"/>
			<stop  offset="0.7773" style="stop-color:#D79D74"/>
			<stop  offset="1" style="stop-color:#D79D74"/>
		</linearGradient>
		<path class="st13" d="M42.2,108.5V35C8.5,34.7,0.4,85.4,0.6,91.6c0.4,11.9,14.2,21.8,22.7,20.5C32.2,110.7,42.2,108.5,42.2,108.5z
			"/>
	</g>
	<path class="st3" d="M78.1,77.9c2,3,6.5,7.3,4.4,13.5c-1.2-1.9-2.9-3.1-4.6-4.1c0.6,3.3,1.3,5.3,0.5,7.5c-0.7-1.5-3-2.8-5-2.4
		C75.6,88.7,78.1,77.9,78.1,77.9z"/>
	<g>
		<defs>
			<path id="SVGID_17_" d="M34.2,80.8c0-5.9,16.9-6.6,16.9,0c0,2.9-8.4,5.3-8.4,5.3S34.2,83.7,34.2,80.8z"/>
		</defs>
		<use xlink:href="#SVGID_17_"  style="overflow:visible;fill-rule:evenodd;clip-rule:evenodd;fill:#491A0D;"/>
		<clipPath id="SVGID_18_">
			<use xlink:href="#SVGID_17_"  style="overflow:visible;"/>
		</clipPath>
		
			<ellipse transform="matrix(-0.9848 -0.1738 0.1738 -0.9848 78.0083 164.3621)" class="st14" cx="46.2" cy="78.8" rx="2.3" ry="0.9"/>
	</g>
</g>
</svg>
