<?xml version="1.0" encoding="utf-8"?>
<!-- Generator: Adobe Illustrator 16.0.0, SVG Export Plug-In . SVG Version: 6.00 Build 0)  -->
<!DOCTYPE svg PUBLIC "-//W3C//DTD SVG 1.1//EN" "http://www.w3.org/Graphics/SVG/1.1/DTD/svg11.dtd">
<svg version="1.1" id="Layer_1" xmlns="http://www.w3.org/2000/svg" xmlns:xlink="http://www.w3.org/1999/xlink" x="0px" y="0px"
	 width="5000px" height="5000px" viewBox="0 0 5000 5000" enable-background="new 0 0 5000 5000" xml:space="preserve">
<radialGradient id="SVGID_1_" cx="2500" cy="2500" r="2500" gradientUnits="userSpaceOnUse">
	<stop  offset="0" style="stop-color:#FFFFFF"/>
	<stop  offset="1" style="stop-color:#FFFFFF"/>
</radialGradient>
<rect y="0" fill="url(#SVGID_1_)" width="5000" height="5000"/>
<radialGradient id="SVGID_2_" cx="2502.6387" cy="2506.0986" r="2504.3691" gradientUnits="userSpaceOnUse">
	<stop  offset="0" style="stop-color:#808080"/>
	<stop  offset="0" style="stop-color:#969696"/>
	<stop  offset="0" style="stop-color:#CFCFCF"/>
	<stop  offset="0" style="stop-color:#F2F2F2"/>
	<stop  offset="0" style="stop-color:#FFFFFF"/>
	<stop  offset="0.2033" style="stop-color:#FFFFFF"/>
	<stop  offset="0.2473" style="stop-color:#FFFFFF"/>
	<stop  offset="0.4206" style="stop-color:#F8F7F6"/>
	<stop  offset="1" style="stop-color:#E2E1DB"/>
</radialGradient>
<rect y="0" fill="url(#SVGID_2_)" width="5005.277" height="5012.197"/>
<g opacity="0.1">
	<g>
		<g>
			<polygon points="2199.11,0.5 2423.837,0.5 2500.083,2500.584 			"/>
			<polygon points="1785.773,0.5 2018.526,0.5 2500.083,2500.584 			"/>
			<polygon points="1328.294,0.5 1593.151,0.5 2500.083,2500.584 			"/>
			<polygon points="806.608,0.5 1119.62,0.5 2500.083,2500.584 			"/>
			<polygon points="164.532,0.5 553.791,0.5 2500.083,2500.584 			"/>
		</g>
		<g>
			<polygon points="2801.057,0.5 2576.329,0.5 2500.083,2500.584 			"/>
			<polygon points="3214.393,0.5 2981.641,0.5 2500.083,2500.584 			"/>
			<polygon points="3671.872,0.5 3407.016,0.5 2500.083,2500.584 			"/>
			<polygon points="4193.559,0.5 3880.547,0.5 2500.083,2500.584 			"/>
			<polygon points="4835.633,0.5 4446.375,0.5 2500.083,2500.584 			"/>
		</g>
	</g>
	<g>
		<g>
			<polygon points="2199.11,5000.667 2423.837,5000.667 2500.083,2500.584 			"/>
			<polygon points="1785.773,5000.667 2018.526,5000.667 2500.083,2500.584 			"/>
			<polygon points="1328.294,5000.667 1593.151,5000.667 2500.083,2500.584 			"/>
			<polygon points="806.608,5000.667 1119.62,5000.667 2500.083,2500.584 			"/>
			<polygon points="164.532,5000.667 553.791,5000.667 2500.083,2500.584 			"/>
		</g>
		<g>
			<polygon points="2801.057,5000.667 2576.329,5000.667 2500.083,2500.584 			"/>
			<polygon points="3214.393,5000.667 2981.641,5000.667 2500.083,2500.584 			"/>
			<polygon points="3671.872,5000.667 3407.016,5000.667 2500.083,2500.584 			"/>
			<polygon points="4193.559,5000.667 3880.547,5000.667 2500.083,2500.584 			"/>
			<polygon points="4835.633,5000.667 4446.375,5000.667 2500.083,2500.584 			"/>
		</g>
	</g>
	<g>
		<g>
			<polygon points="5000.168,2199.61 5000.168,2424.337 2500.083,2500.584 			"/>
			<polygon points="5000.168,1786.274 5000.168,2019.026 2500.083,2500.584 			"/>
			<polygon points="5000.168,1328.795 5000.168,1593.651 2500.083,2500.584 			"/>
			<polygon points="5000.168,807.108 5000.168,1120.12 2500.083,2500.584 			"/>
			<polygon points="5000.168,165.032 5000.168,554.291 2500.083,2500.584 			"/>
		</g>
		<g>
			<polygon points="5000.168,2801.557 5000.168,2576.83 2500.083,2500.584 			"/>
			<polygon points="5000.168,3214.893 5000.168,2982.141 2500.083,2500.584 			"/>
			<polygon points="5000.168,3672.372 5000.168,3407.516 2500.083,2500.584 			"/>
			<polygon points="5000.168,4194.06 5000.168,3881.047 2500.083,2500.584 			"/>
			<polygon points="5000.168,4836.135 5000.168,4446.877 2500.083,2500.584 			"/>
		</g>
	</g>
	<g>
		<g>
			<polygon points="0,2199.61 0,2424.337 2500.083,2500.584 			"/>
			<polygon points="0,1786.274 0,2019.026 2500.083,2500.584 			"/>
			<polygon points="0,1328.795 0,1593.651 2500.083,2500.584 			"/>
			<polygon points="0,807.108 0,1120.12 2500.083,2500.584 			"/>
			<polygon points="0,165.032 0,554.291 2500.083,2500.584 			"/>
		</g>
		<g>
			<polygon points="0,2801.557 0,2576.83 2500.083,2500.584 			"/>
			<polygon points="0,3214.893 0,2982.141 2500.083,2500.584 			"/>
			<polygon points="0,3672.372 0,3407.516 2500.083,2500.584 			"/>
			<polygon points="0,4194.06 0,3881.047 2500.083,2500.584 			"/>
			<polygon points="0,4836.135 0,4446.877 2500.083,2500.584 			"/>
		</g>
	</g>
</g>
</svg>
